<svg width="246" height="30" viewBox="0 0 246 30" fill="none" xmlns="http://www.w3.org/2000/svg">
<g filter="url(#filter0_i_419_4119)">
<g clip-path="url(#clip0_419_4119)">
<rect width="246" height="30" rx="15" fill="white" fill-opacity="0.01"/>
<path fill-rule="evenodd" clip-rule="evenodd" d="M21.7854 7.52459C22.2319 7.63621 22.5034 8.08866 22.3918 8.53516L21.9751 10.2018C21.8635 10.6483 21.411 10.9198 20.9645 10.8082C20.518 10.6965 20.2466 10.2441 20.3582 9.7976L20.7749 8.13093C20.8865 7.68443 21.3389 7.41297 21.7854 7.52459ZM16.1666 7.49971C16.6269 7.49971 17 7.8728 17 8.33304C17.4602 8.33304 17.8333 8.70614 17.8333 9.16638C17.8333 9.62661 17.4602 9.99971 17 9.99971C17 10.4599 16.6269 10.833 16.1666 10.833C15.7064 10.833 15.3333 10.4599 15.3333 9.99971C14.8731 9.99971 14.5 9.62661 14.5 9.16638C14.5 8.70614 14.8731 8.33304 15.3333 8.33304C15.3333 7.8728 15.7064 7.49971 16.1666 7.49971ZM27.8333 7.49971C28.2935 7.49971 28.6666 7.8728 28.6666 8.33304C29.1269 8.33304 29.5 8.70614 29.5 9.16638C29.5 9.62661 29.1269 9.99971 28.6666 9.99971C28.6666 10.4599 28.2935 10.833 27.8333 10.833C27.3731 10.833 27 10.4599 27 9.99971C26.5397 9.99971 26.1666 9.62661 26.1666 9.16638C26.1666 8.70614 26.5397 8.33304 27 8.33304C27 7.8728 27.3731 7.49971 27.8333 7.49971ZM25.0892 11.9105C25.4147 12.2359 25.4147 12.7635 25.0892 13.089L24.2559 13.9223C23.9305 14.2477 23.4028 14.2477 23.0774 13.9223C22.7519 13.5969 22.7519 13.0692 23.0774 12.7438L23.9107 11.9105C24.2362 11.585 24.7638 11.585 25.0892 11.9105ZM18.0875 12.5129C18.3561 12.4646 18.6313 12.5508 18.8242 12.7438L24.2559 18.1755C24.4488 18.3684 24.5351 18.6435 24.4868 18.9121C24.4386 19.1806 24.2619 19.4085 24.0139 19.5222L16.0303 23.1819C15.7208 23.3233 15.3754 23.3666 15.0406 23.3062C14.7057 23.2458 14.3973 23.0844 14.1567 22.8438C13.9161 22.6032 13.7547 22.2948 13.6943 21.96C13.6339 21.6251 13.6773 21.2798 13.8186 20.9702L17.4774 12.9859C17.5911 12.7378 17.819 12.5611 18.0875 12.5129ZM18.4932 14.7698L15.3347 21.6625C15.3347 21.6625 15.3347 21.6625 15.3347 21.6625C15.3345 21.663 15.3344 21.6635 15.3345 21.664C15.3346 21.6645 15.3348 21.665 15.3352 21.6653C15.3355 21.6657 15.336 21.6659 15.3365 21.666C15.3368 21.6661 15.3372 21.6661 15.3375 21.666L22.23 18.5066L18.4932 14.7698ZM29.4751 15.2143C29.5867 15.6608 29.3152 16.1132 28.8688 16.2248L27.2021 16.6415C26.7556 16.7531 26.3031 16.4817 26.1915 16.0352C26.0799 15.5887 26.3514 15.1362 26.7979 15.0246L28.4645 14.6079C28.911 14.4963 29.3635 14.7678 29.4751 15.2143ZM27.8333 19.1664C28.2935 19.1664 28.6666 19.5395 28.6666 19.9997C29.1269 19.9997 29.5 20.3728 29.5 20.833C29.5 21.2933 29.1269 21.6664 28.6666 21.6664C28.6666 22.1266 28.2935 22.4997 27.8333 22.4997C27.3731 22.4997 27 22.1266 27 21.6664C26.5397 21.6664 26.1666 21.2933 26.1666 20.833C26.1666 20.3728 26.5397 19.9997 27 19.9997C27 19.5395 27.3731 19.1664 27.8333 19.1664Z" fill="url(#paint0_linear_419_4119)" style="mix-blend-mode:screen"/>
<path d="M42.375 20H39.233V9.81818H42.5142C43.5019 9.81818 44.3471 10.022 45.0497 10.4297C45.7524 10.834 46.291 11.4157 46.6655 12.1747C47.04 12.9304 47.2273 13.8352 47.2273 14.8892C47.2273 15.9498 47.0384 16.8629 46.6605 17.6286C46.2827 18.3909 45.7325 18.9775 45.0099 19.3885C44.2874 19.7962 43.4091 20 42.375 20ZM40.4659 18.9062H42.2955C43.1373 18.9062 43.835 18.7438 44.3885 18.419C44.942 18.0942 45.3546 17.6319 45.6264 17.032C45.8982 16.4321 46.0341 15.7178 46.0341 14.8892C46.0341 14.0672 45.8999 13.3596 45.6314 12.7663C45.3629 12.1697 44.9619 11.7124 44.4283 11.3942C43.8946 11.0727 43.2301 10.9119 42.4347 10.9119H40.4659V18.9062ZM52.1981 20.1591C51.4623 20.1591 50.8276 19.9967 50.2939 19.6719C49.7636 19.3438 49.3543 18.8864 49.066 18.2997C48.7809 17.7098 48.6384 17.0237 48.6384 16.2415C48.6384 15.4593 48.7809 14.7699 49.066 14.1733C49.3543 13.5734 49.7554 13.1061 50.2691 12.7713C50.7861 12.4332 51.3894 12.2642 52.0787 12.2642C52.4765 12.2642 52.8692 12.3305 53.257 12.4631C53.6448 12.5956 53.9978 12.8111 54.316 13.1094C54.6341 13.4044 54.8877 13.7955 55.0766 14.2827C55.2655 14.7699 55.36 15.3698 55.36 16.0824V16.5795H49.4736V15.5653H54.1668C54.1668 15.1345 54.0806 14.75 53.9083 14.4119C53.7393 14.0739 53.4973 13.8071 53.1824 13.6115C52.8709 13.416 52.503 13.3182 52.0787 13.3182C51.6114 13.3182 51.2071 13.4342 50.8657 13.6662C50.5276 13.8949 50.2674 14.1932 50.0851 14.5611C49.9029 14.929 49.8117 15.3234 49.8117 15.7443V16.4205C49.8117 16.9972 49.9111 17.486 50.11 17.8871C50.3122 18.2848 50.5922 18.5881 50.9502 18.7969C51.3082 19.0024 51.7241 19.1051 52.1981 19.1051C52.5063 19.1051 52.7847 19.062 53.0333 18.9759C53.2852 18.8864 53.5023 18.7538 53.6846 18.5781C53.8669 18.3991 54.0077 18.1771 54.1072 17.9119L55.2407 18.2301C55.1214 18.6146 54.9208 18.9527 54.6391 19.2443C54.3574 19.5327 54.0094 19.758 53.5951 19.9205C53.1808 20.0795 52.7151 20.1591 52.1981 20.1591ZM51.4822 11.3295L52.6952 9.02273H54.0674L52.5162 11.3295H51.4822ZM60.1071 20.1591C59.3912 20.1591 58.7747 19.9901 58.2576 19.652C57.7406 19.3139 57.3429 18.8482 57.0645 18.255C56.7861 17.6617 56.6468 16.9839 56.6468 16.2216C56.6468 15.446 56.7894 14.7616 57.0744 14.1683C57.3628 13.5717 57.7638 13.1061 58.2775 12.7713C58.7946 12.4332 59.3978 12.2642 60.0872 12.2642C60.6241 12.2642 61.108 12.3636 61.5389 12.5625C61.9698 12.7614 62.3227 13.0398 62.5978 13.3977C62.8729 13.7557 63.0436 14.1733 63.1099 14.6506H61.9366C61.8471 14.3026 61.6483 13.9943 61.34 13.7259C61.0351 13.4541 60.6241 13.3182 60.1071 13.3182C59.6497 13.3182 59.2486 13.4375 58.9039 13.6761C58.5626 13.9115 58.2958 14.2446 58.1035 14.6754C57.9146 15.103 57.8201 15.6051 57.8201 16.1818C57.8201 16.7718 57.9129 17.2855 58.0986 17.723C58.2875 18.1605 58.5526 18.5002 58.894 18.7422C59.2387 18.9841 59.6431 19.1051 60.1071 19.1051C60.412 19.1051 60.6887 19.0521 60.9373 18.946C61.1859 18.84 61.3964 18.6875 61.5687 18.4886C61.7411 18.2898 61.8637 18.0511 61.9366 17.7727H63.1099C63.0436 18.2235 62.8796 18.6295 62.6177 18.9908C62.3592 19.3487 62.0162 19.6338 61.5886 19.8459C61.1644 20.0547 60.6705 20.1591 60.1071 20.1591ZM67.7874 20.1591C67.098 20.1591 66.4931 19.995 65.9728 19.6669C65.4557 19.3388 65.0514 18.8797 64.7597 18.2898C64.4713 17.6998 64.3272 17.0104 64.3272 16.2216C64.3272 15.4261 64.4713 14.7318 64.7597 14.1385C65.0514 13.5452 65.4557 13.0845 65.9728 12.7564C66.4931 12.4283 67.098 12.2642 67.7874 12.2642C68.4768 12.2642 69.08 12.4283 69.597 12.7564C70.1174 13.0845 70.5218 13.5452 70.8101 14.1385C71.1018 14.7318 71.2476 15.4261 71.2476 16.2216C71.2476 17.0104 71.1018 17.6998 70.8101 18.2898C70.5218 18.8797 70.1174 19.3388 69.597 19.6669C69.08 19.995 68.4768 20.1591 67.7874 20.1591ZM67.7874 19.1051C68.3111 19.1051 68.7419 18.9709 69.08 18.7024C69.4181 18.4339 69.6683 18.081 69.8307 17.6435C69.9931 17.206 70.0743 16.732 70.0743 16.2216C70.0743 15.7112 69.9931 15.2356 69.8307 14.7947C69.6683 14.3539 69.4181 13.9976 69.08 13.7259C68.7419 13.4541 68.3111 13.3182 67.7874 13.3182C67.2637 13.3182 66.8328 13.4541 66.4948 13.7259C66.1567 13.9976 65.9065 14.3539 65.7441 14.7947C65.5817 15.2356 65.5005 15.7112 65.5005 16.2216C65.5005 16.732 65.5817 17.206 65.7441 17.6435C65.9065 18.081 66.1567 18.4339 66.4948 18.7024C66.8328 18.9709 67.2637 19.1051 67.7874 19.1051ZM77.7111 16.8778V12.3636H78.8844V20H77.7111V18.7074H77.6316C77.4526 19.0952 77.1742 19.425 76.7964 19.6967C76.4185 19.9652 75.9412 20.0994 75.3645 20.0994C74.8873 20.0994 74.463 19.995 74.0918 19.7862C73.7206 19.5741 73.4289 19.2559 73.2168 18.8317C73.0047 18.4041 72.8986 17.8655 72.8986 17.2159V12.3636H74.0719V17.1364C74.0719 17.6932 74.2277 18.1373 74.5393 18.4688C74.8541 18.8002 75.2552 18.9659 75.7424 18.9659C76.034 18.9659 76.3307 18.8913 76.6323 18.7422C76.9372 18.593 77.1924 18.3643 77.3979 18.0561C77.6067 17.7479 77.7111 17.3551 77.7111 16.8778ZM87.1377 12.3636L84.3138 20H83.1207L80.2968 12.3636H81.5695L83.6775 18.4489H83.757L85.865 12.3636H87.1377ZM88.5464 20V12.3636H89.6799V13.517H89.7594C89.8986 13.1392 90.1505 12.8326 90.5151 12.5973C90.8797 12.362 91.2907 12.2443 91.7481 12.2443C91.8342 12.2443 91.942 12.246 92.0712 12.2493C92.2005 12.2526 92.2983 12.2576 92.3645 12.2642V13.4574C92.3248 13.4474 92.2336 13.4325 92.0911 13.4126C91.9519 13.3894 91.8044 13.3778 91.6486 13.3778C91.2774 13.3778 90.946 13.4557 90.6543 13.6115C90.366 13.764 90.1373 13.9761 89.9682 14.2479C89.8025 14.5163 89.7197 14.8229 89.7197 15.1676V20H88.5464ZM96.5846 20.1591C95.8488 20.1591 95.2141 19.9967 94.6805 19.6719C94.1502 19.3438 93.7409 18.8864 93.4525 18.2997C93.1675 17.7098 93.025 17.0237 93.025 16.2415C93.025 15.4593 93.1675 14.7699 93.4525 14.1733C93.7409 13.5734 94.1419 13.1061 94.6557 12.7713C95.1727 12.4332 95.7759 12.2642 96.4653 12.2642C96.863 12.2642 97.2558 12.3305 97.6436 12.4631C98.0314 12.5956 98.3843 12.8111 98.7025 13.1094C99.0207 13.4044 99.2743 13.7955 99.4632 14.2827C99.6521 14.7699 99.7466 15.3698 99.7466 16.0824V16.5795H93.8602V15.5653H98.5534C98.5534 15.1345 98.4672 14.75 98.2949 14.4119C98.1258 14.0739 97.8839 13.8071 97.569 13.6115C97.2575 13.416 96.8896 13.3182 96.4653 13.3182C95.998 13.3182 95.5936 13.4342 95.2522 13.6662C94.9142 13.8949 94.654 14.1932 94.4717 14.5611C94.2894 14.929 94.1983 15.3234 94.1983 15.7443V16.4205C94.1983 16.9972 94.2977 17.486 94.4966 17.8871C94.6987 18.2848 94.9788 18.5881 95.3368 18.7969C95.6947 19.0024 96.1107 19.1051 96.5846 19.1051C96.8929 19.1051 97.1713 19.062 97.4199 18.9759C97.6718 18.8864 97.8888 18.7538 98.0711 18.5781C98.2534 18.3991 98.3943 18.1771 98.4937 17.9119L99.6272 18.2301C99.5079 18.6146 99.3074 18.9527 99.0257 19.2443C98.744 19.5327 98.3959 19.758 97.9816 19.9205C97.5673 20.0795 97.1017 20.1591 96.5846 20.1591ZM101.173 20V19.1051L105.508 13.5369V13.4574H101.312V12.3636H107.019V13.2983L102.803 18.8267V18.9062H107.158V20H101.173ZM113.796 9.81818V20H112.623V9.81818H113.796ZM119.007 20.1591C118.271 20.1591 117.637 19.9967 117.103 19.6719C116.573 19.3438 116.163 18.8864 115.875 18.2997C115.59 17.7098 115.447 17.0237 115.447 16.2415C115.447 15.4593 115.59 14.7699 115.875 14.1733C116.163 13.5734 116.564 13.1061 117.078 12.7713C117.595 12.4332 118.198 12.2642 118.888 12.2642C119.285 12.2642 119.678 12.3305 120.066 12.4631C120.454 12.5956 120.807 12.8111 121.125 13.1094C121.443 13.4044 121.697 13.7955 121.886 14.2827C122.075 14.7699 122.169 15.3698 122.169 16.0824V16.5795H116.283V15.5653H120.976C120.976 15.1345 120.89 14.75 120.717 14.4119C120.548 14.0739 120.306 13.8071 119.991 13.6115C119.68 13.416 119.312 13.3182 118.888 13.3182C118.42 13.3182 118.016 13.4342 117.675 13.6662C117.337 13.8949 117.076 14.1932 116.894 14.5611C116.712 14.929 116.621 15.3234 116.621 15.7443V16.4205C116.621 16.9972 116.72 17.486 116.919 17.8871C117.121 18.2848 117.401 18.5881 117.759 18.7969C118.117 19.0024 118.533 19.1051 119.007 19.1051C119.315 19.1051 119.594 19.062 119.842 18.9759C120.094 18.8864 120.311 18.7538 120.494 18.5781C120.676 18.3991 120.817 18.1771 120.916 17.9119L122.05 18.2301C121.93 18.6146 121.73 18.9527 121.448 19.2443C121.166 19.5327 120.818 19.758 120.404 19.9205C119.99 20.0795 119.524 20.1591 119.007 20.1591ZM129.223 14.0739L128.169 14.3722C128.103 14.1965 128.005 14.0258 127.876 13.8601C127.75 13.6911 127.577 13.5518 127.359 13.4425C127.14 13.3331 126.86 13.2784 126.518 13.2784C126.051 13.2784 125.662 13.3861 125.35 13.6016C125.042 13.8137 124.888 14.0838 124.888 14.4119C124.888 14.7036 124.994 14.9339 125.206 15.103C125.418 15.272 125.749 15.4129 126.2 15.5256L127.334 15.804C128.016 15.9697 128.525 16.2232 128.86 16.5646C129.195 16.9027 129.362 17.3385 129.362 17.8722C129.362 18.3097 129.236 18.7008 128.984 19.0455C128.736 19.3902 128.388 19.6619 127.94 19.8608C127.493 20.0597 126.972 20.1591 126.379 20.1591C125.6 20.1591 124.956 19.9901 124.445 19.652C123.935 19.3139 123.612 18.8201 123.476 18.1705L124.589 17.892C124.695 18.303 124.896 18.6113 125.191 18.8168C125.489 19.0223 125.879 19.125 126.359 19.125C126.906 19.125 127.34 19.009 127.662 18.777C127.987 18.5417 128.149 18.2599 128.149 17.9318C128.149 17.6667 128.056 17.4446 127.871 17.2656C127.685 17.0833 127.4 16.9474 127.015 16.858L125.743 16.5597C125.043 16.3939 124.53 16.1371 124.202 15.7891C123.877 15.4377 123.714 14.9986 123.714 14.4716C123.714 14.0407 123.835 13.6596 124.077 13.3281C124.323 12.9967 124.656 12.7365 125.077 12.5476C125.501 12.3587 125.981 12.2642 126.518 12.2642C127.274 12.2642 127.867 12.4299 128.298 12.7614C128.732 13.0928 129.041 13.5303 129.223 14.0739ZM135.959 15.4062V20H134.786V12.3636H135.919V13.5568H136.019C136.198 13.169 136.469 12.8575 136.834 12.6222C137.199 12.3835 137.669 12.2642 138.246 12.2642C138.763 12.2642 139.215 12.3703 139.603 12.5824C139.991 12.7912 140.293 13.1094 140.508 13.5369C140.723 13.9612 140.831 14.4981 140.831 15.1477V20H139.658V15.2273C139.658 14.6274 139.502 14.16 139.191 13.8253C138.879 13.4872 138.451 13.3182 137.908 13.3182C137.533 13.3182 137.199 13.3994 136.904 13.5618C136.612 13.7242 136.382 13.9612 136.213 14.2727C136.044 14.5843 135.959 14.9621 135.959 15.4062ZM145.937 20.1591C145.248 20.1591 144.643 19.995 144.123 19.6669C143.606 19.3388 143.201 18.8797 142.91 18.2898C142.621 17.6998 142.477 17.0104 142.477 16.2216C142.477 15.4261 142.621 14.7318 142.91 14.1385C143.201 13.5452 143.606 13.0845 144.123 12.7564C144.643 12.4283 145.248 12.2642 145.937 12.2642C146.627 12.2642 147.23 12.4283 147.747 12.7564C148.267 13.0845 148.672 13.5452 148.96 14.1385C149.252 14.7318 149.398 15.4261 149.398 16.2216C149.398 17.0104 149.252 17.6998 148.96 18.2898C148.672 18.8797 148.267 19.3388 147.747 19.6669C147.23 19.995 146.627 20.1591 145.937 20.1591ZM145.937 19.1051C146.461 19.1051 146.892 18.9709 147.23 18.7024C147.568 18.4339 147.818 18.081 147.981 17.6435C148.143 17.206 148.224 16.732 148.224 16.2216C148.224 15.7112 148.143 15.2356 147.981 14.7947C147.818 14.3539 147.568 13.9976 147.23 13.7259C146.892 13.4541 146.461 13.3182 145.937 13.3182C145.414 13.3182 144.983 13.4541 144.645 13.7259C144.307 13.9976 144.057 14.3539 143.894 14.7947C143.732 15.2356 143.651 15.7112 143.651 16.2216C143.651 16.732 143.732 17.206 143.894 17.6435C144.057 18.081 144.307 18.4339 144.645 18.7024C144.983 18.9709 145.414 19.1051 145.937 19.1051ZM155.861 16.8778V12.3636H157.035V20H155.861V18.7074H155.782C155.603 19.0952 155.324 19.425 154.946 19.6967C154.569 19.9652 154.091 20.0994 153.515 20.0994C153.037 20.0994 152.613 19.995 152.242 19.7862C151.871 19.5741 151.579 19.2559 151.367 18.8317C151.155 18.4041 151.049 17.8655 151.049 17.2159V12.3636H152.222V17.1364C152.222 17.6932 152.378 18.1373 152.689 18.4688C153.004 18.8002 153.405 18.9659 153.892 18.9659C154.184 18.9659 154.481 18.8913 154.782 18.7422C155.087 18.593 155.343 18.3643 155.548 18.0561C155.757 17.7479 155.861 17.3551 155.861 16.8778ZM165.288 12.3636L162.464 20H161.271L158.447 12.3636H159.72L161.828 18.4489H161.907L164.015 12.3636H165.288ZM169.625 20.1591C168.889 20.1591 168.254 19.9967 167.721 19.6719C167.19 19.3438 166.781 18.8864 166.493 18.2997C166.208 17.7098 166.065 17.0237 166.065 16.2415C166.065 15.4593 166.208 14.7699 166.493 14.1733C166.781 13.5734 167.182 13.1061 167.696 12.7713C168.213 12.4332 168.816 12.2642 169.505 12.2642C169.903 12.2642 170.296 12.3305 170.684 12.4631C171.071 12.5956 171.424 12.8111 171.743 13.1094C172.061 13.4044 172.314 13.7955 172.503 14.2827C172.692 14.7699 172.787 15.3698 172.787 16.0824V16.5795H166.9V15.5653H171.593C171.593 15.1345 171.507 14.75 171.335 14.4119C171.166 14.0739 170.924 13.8071 170.609 13.6115C170.298 13.416 169.93 13.3182 169.505 13.3182C169.038 13.3182 168.634 13.4342 168.292 13.6662C167.954 13.8949 167.694 14.1932 167.512 14.5611C167.329 14.929 167.238 15.3234 167.238 15.7443V16.4205C167.238 16.9972 167.338 17.486 167.537 17.8871C167.739 18.2848 168.019 18.5881 168.377 18.7969C168.735 19.0024 169.151 19.1051 169.625 19.1051C169.933 19.1051 170.211 19.062 170.46 18.9759C170.712 18.8864 170.929 18.7538 171.111 18.5781C171.294 18.3991 171.434 18.1771 171.534 17.9119L172.667 18.2301C172.548 18.6146 172.347 18.9527 172.066 19.2443C171.784 19.5327 171.436 19.758 171.022 19.9205C170.607 20.0795 170.142 20.1591 169.625 20.1591ZM176.679 20.179C176.195 20.179 175.756 20.0878 175.361 19.9055C174.967 19.7199 174.654 19.4531 174.421 19.1051C174.189 18.7538 174.073 18.3295 174.073 17.8324C174.073 17.3949 174.16 17.0402 174.332 16.7685C174.504 16.4934 174.735 16.2779 175.023 16.1222C175.311 15.9664 175.63 15.8504 175.978 15.7741C176.329 15.6946 176.682 15.6316 177.037 15.5852C177.501 15.5256 177.877 15.4808 178.165 15.451C178.457 15.4179 178.669 15.3632 178.801 15.2869C178.937 15.2107 179.005 15.0781 179.005 14.8892V14.8494C179.005 14.3589 178.871 13.9777 178.603 13.706C178.337 13.4342 177.935 13.2983 177.395 13.2983C176.834 13.2983 176.395 13.4209 176.077 13.6662C175.759 13.9115 175.535 14.1733 175.406 14.4517L174.292 14.054C174.491 13.59 174.756 13.2287 175.088 12.9702C175.422 12.7083 175.787 12.526 176.181 12.4233C176.579 12.3172 176.97 12.2642 177.355 12.2642C177.6 12.2642 177.882 12.294 178.2 12.3537C178.521 12.41 178.831 12.5277 179.13 12.7067C179.431 12.8857 179.681 13.1558 179.88 13.517C180.079 13.8783 180.179 14.3622 180.179 14.9688V20H179.005V18.9659H178.946C178.866 19.1316 178.734 19.3089 178.548 19.4979C178.362 19.6868 178.115 19.8475 177.807 19.9801C177.499 20.1127 177.123 20.179 176.679 20.179ZM176.858 19.125C177.322 19.125 177.713 19.0339 178.031 18.8516C178.352 18.6693 178.594 18.4339 178.757 18.1456C178.922 17.8572 179.005 17.554 179.005 17.2358V16.1619C178.956 16.2216 178.846 16.2763 178.677 16.326C178.511 16.3724 178.319 16.4138 178.1 16.4503C177.885 16.4834 177.675 16.5133 177.469 16.5398C177.267 16.563 177.103 16.5829 176.977 16.5994C176.672 16.6392 176.387 16.7038 176.122 16.7933C175.86 16.8795 175.648 17.0104 175.485 17.1861C175.326 17.3584 175.247 17.5937 175.247 17.892C175.247 18.2997 175.398 18.608 175.699 18.8168C176.004 19.0223 176.39 19.125 176.858 19.125ZM186.993 16.8778V12.3636H188.166V20H186.993V18.7074H186.913C186.734 19.0952 186.456 19.425 186.078 19.6967C185.7 19.9652 185.223 20.0994 184.646 20.0994C184.169 20.0994 183.745 19.995 183.373 19.7862C183.002 19.5741 182.71 19.2559 182.498 18.8317C182.286 18.4041 182.18 17.8655 182.18 17.2159V12.3636H183.353V17.1364C183.353 17.6932 183.509 18.1373 183.821 18.4688C184.136 18.8002 184.537 18.9659 185.024 18.9659C185.316 18.9659 185.612 18.8913 185.914 18.7422C186.219 18.593 186.474 18.3643 186.679 18.0561C186.888 17.7479 186.993 17.3551 186.993 16.8778ZM193.496 12.3636V13.358H189.539V12.3636H193.496ZM190.692 10.5341H191.865V17.8125C191.865 18.1439 191.913 18.3925 192.009 18.5582C192.109 18.7206 192.235 18.83 192.387 18.8864C192.543 18.9394 192.707 18.9659 192.879 18.9659C193.009 18.9659 193.115 18.9593 193.198 18.946C193.28 18.9295 193.347 18.9162 193.396 18.9062L193.635 19.9602C193.556 19.9901 193.445 20.0199 193.302 20.0497C193.159 20.0829 192.979 20.0994 192.76 20.0994C192.429 20.0994 192.104 20.0282 191.786 19.8857C191.471 19.7431 191.209 19.526 191 19.2344C190.795 18.9427 190.692 18.5748 190.692 18.1307V10.5341ZM198.24 20.1591C197.505 20.1591 196.87 19.9967 196.336 19.6719C195.806 19.3438 195.397 18.8864 195.108 18.2997C194.823 17.7098 194.681 17.0237 194.681 16.2415C194.681 15.4593 194.823 14.7699 195.108 14.1733C195.397 13.5734 195.798 13.1061 196.312 12.7713C196.829 12.4332 197.432 12.2642 198.121 12.2642C198.519 12.2642 198.912 12.3305 199.299 12.4631C199.687 12.5956 200.04 12.8111 200.358 13.1094C200.677 13.4044 200.93 13.7955 201.119 14.2827C201.308 14.7699 201.402 15.3698 201.402 16.0824V16.5795H195.516V15.5653H200.209C200.209 15.1345 200.123 14.75 199.951 14.4119C199.782 14.0739 199.54 13.8071 199.225 13.6115C198.913 13.416 198.545 13.3182 198.121 13.3182C197.654 13.3182 197.249 13.4342 196.908 13.6662C196.57 13.8949 196.31 14.1932 196.128 14.5611C195.945 14.929 195.854 15.3234 195.854 15.7443V16.4205C195.854 16.9972 195.954 17.486 196.152 17.8871C196.355 18.2848 196.635 18.5881 196.993 18.7969C197.351 19.0024 197.767 19.1051 198.24 19.1051C198.549 19.1051 198.827 19.062 199.076 18.9759C199.328 18.8864 199.545 18.7538 199.727 18.5781C199.909 18.3991 200.05 18.1771 200.15 17.9119L201.283 18.2301C201.164 18.6146 200.963 18.9527 200.682 19.2443C200.4 19.5327 200.052 19.758 199.638 19.9205C199.223 20.0795 198.758 20.1591 198.24 20.1591ZM197.525 11.3295L198.738 9.02273H200.11L198.559 11.3295H197.525ZM208.456 14.0739L207.402 14.3722C207.336 14.1965 207.238 14.0258 207.109 13.8601C206.983 13.6911 206.811 13.5518 206.592 13.4425C206.373 13.3331 206.093 13.2784 205.752 13.2784C205.284 13.2784 204.895 13.3861 204.583 13.6016C204.275 13.8137 204.121 14.0838 204.121 14.4119C204.121 14.7036 204.227 14.9339 204.439 15.103C204.651 15.272 204.983 15.4129 205.434 15.5256L206.567 15.804C207.25 15.9697 207.759 16.2232 208.093 16.5646C208.428 16.9027 208.596 17.3385 208.596 17.8722C208.596 18.3097 208.47 18.7008 208.218 19.0455C207.969 19.3902 207.621 19.6619 207.174 19.8608C206.726 20.0597 206.206 20.1591 205.613 20.1591C204.834 20.1591 204.189 19.9901 203.679 19.652C203.168 19.3139 202.845 18.8201 202.709 18.1705L203.823 17.892C203.929 18.303 204.129 18.6113 204.424 18.8168C204.723 19.0223 205.112 19.125 205.593 19.125C206.14 19.125 206.574 19.009 206.895 18.777C207.22 18.5417 207.382 18.2599 207.382 17.9318C207.382 17.6667 207.29 17.4446 207.104 17.2656C206.918 17.0833 206.633 16.9474 206.249 16.858L204.976 16.5597C204.277 16.3939 203.763 16.1371 203.435 15.7891C203.11 15.4377 202.948 14.9986 202.948 14.4716C202.948 14.0407 203.069 13.6596 203.311 13.3281C203.556 12.9967 203.889 12.7365 204.31 12.5476C204.734 12.3587 205.215 12.2642 205.752 12.2642C206.507 12.2642 207.101 12.4299 207.532 12.7614C207.966 13.0928 208.274 13.5303 208.456 14.0739ZM211.773 9.81818L211.673 17.1364H210.52L210.421 9.81818H211.773ZM211.097 20.0795C210.851 20.0795 210.641 19.9917 210.465 19.8161C210.29 19.6404 210.202 19.4299 210.202 19.1847C210.202 18.9394 210.29 18.7289 210.465 18.5533C210.641 18.3776 210.851 18.2898 211.097 18.2898C211.342 18.2898 211.552 18.3776 211.728 18.5533C211.904 18.7289 211.992 18.9394 211.992 19.1847C211.992 19.3471 211.95 19.4962 211.867 19.6321C211.788 19.768 211.68 19.8774 211.544 19.9602C211.412 20.0398 211.262 20.0795 211.097 20.0795Z" fill="url(#paint1_linear_419_4119)"/>
<path d="M42.375 20H39.233V9.81818H42.5142C43.5019 9.81818 44.3471 10.022 45.0497 10.4297C45.7524 10.834 46.291 11.4157 46.6655 12.1747C47.04 12.9304 47.2273 13.8352 47.2273 14.8892C47.2273 15.9498 47.0384 16.8629 46.6605 17.6286C46.2827 18.3909 45.7325 18.9775 45.0099 19.3885C44.2874 19.7962 43.4091 20 42.375 20ZM40.4659 18.9062H42.2955C43.1373 18.9062 43.835 18.7438 44.3885 18.419C44.942 18.0942 45.3546 17.6319 45.6264 17.032C45.8982 16.4321 46.0341 15.7178 46.0341 14.8892C46.0341 14.0672 45.8999 13.3596 45.6314 12.7663C45.3629 12.1697 44.9619 11.7124 44.4283 11.3942C43.8946 11.0727 43.2301 10.9119 42.4347 10.9119H40.4659V18.9062ZM52.1981 20.1591C51.4623 20.1591 50.8276 19.9967 50.2939 19.6719C49.7636 19.3438 49.3543 18.8864 49.066 18.2997C48.7809 17.7098 48.6384 17.0237 48.6384 16.2415C48.6384 15.4593 48.7809 14.7699 49.066 14.1733C49.3543 13.5734 49.7554 13.1061 50.2691 12.7713C50.7861 12.4332 51.3894 12.2642 52.0787 12.2642C52.4765 12.2642 52.8692 12.3305 53.257 12.4631C53.6448 12.5956 53.9978 12.8111 54.316 13.1094C54.6341 13.4044 54.8877 13.7955 55.0766 14.2827C55.2655 14.7699 55.36 15.3698 55.36 16.0824V16.5795H49.4736V15.5653H54.1668C54.1668 15.1345 54.0806 14.75 53.9083 14.4119C53.7393 14.0739 53.4973 13.8071 53.1824 13.6115C52.8709 13.416 52.503 13.3182 52.0787 13.3182C51.6114 13.3182 51.2071 13.4342 50.8657 13.6662C50.5276 13.8949 50.2674 14.1932 50.0851 14.5611C49.9029 14.929 49.8117 15.3234 49.8117 15.7443V16.4205C49.8117 16.9972 49.9111 17.486 50.11 17.8871C50.3122 18.2848 50.5922 18.5881 50.9502 18.7969C51.3082 19.0024 51.7241 19.1051 52.1981 19.1051C52.5063 19.1051 52.7847 19.062 53.0333 18.9759C53.2852 18.8864 53.5023 18.7538 53.6846 18.5781C53.8669 18.3991 54.0077 18.1771 54.1072 17.9119L55.2407 18.2301C55.1214 18.6146 54.9208 18.9527 54.6391 19.2443C54.3574 19.5327 54.0094 19.758 53.5951 19.9205C53.1808 20.0795 52.7151 20.1591 52.1981 20.1591ZM51.4822 11.3295L52.6952 9.02273H54.0674L52.5162 11.3295H51.4822ZM60.1071 20.1591C59.3912 20.1591 58.7747 19.9901 58.2576 19.652C57.7406 19.3139 57.3429 18.8482 57.0645 18.255C56.7861 17.6617 56.6468 16.9839 56.6468 16.2216C56.6468 15.446 56.7894 14.7616 57.0744 14.1683C57.3628 13.5717 57.7638 13.1061 58.2775 12.7713C58.7946 12.4332 59.3978 12.2642 60.0872 12.2642C60.6241 12.2642 61.108 12.3636 61.5389 12.5625C61.9698 12.7614 62.3227 13.0398 62.5978 13.3977C62.8729 13.7557 63.0436 14.1733 63.1099 14.6506H61.9366C61.8471 14.3026 61.6483 13.9943 61.34 13.7259C61.0351 13.4541 60.6241 13.3182 60.1071 13.3182C59.6497 13.3182 59.2486 13.4375 58.9039 13.6761C58.5626 13.9115 58.2958 14.2446 58.1035 14.6754C57.9146 15.103 57.8201 15.6051 57.8201 16.1818C57.8201 16.7718 57.9129 17.2855 58.0986 17.723C58.2875 18.1605 58.5526 18.5002 58.894 18.7422C59.2387 18.9841 59.6431 19.1051 60.1071 19.1051C60.412 19.1051 60.6887 19.0521 60.9373 18.946C61.1859 18.84 61.3964 18.6875 61.5687 18.4886C61.7411 18.2898 61.8637 18.0511 61.9366 17.7727H63.1099C63.0436 18.2235 62.8796 18.6295 62.6177 18.9908C62.3592 19.3487 62.0162 19.6338 61.5886 19.8459C61.1644 20.0547 60.6705 20.1591 60.1071 20.1591ZM67.7874 20.1591C67.098 20.1591 66.4931 19.995 65.9728 19.6669C65.4557 19.3388 65.0514 18.8797 64.7597 18.2898C64.4713 17.6998 64.3272 17.0104 64.3272 16.2216C64.3272 15.4261 64.4713 14.7318 64.7597 14.1385C65.0514 13.5452 65.4557 13.0845 65.9728 12.7564C66.4931 12.4283 67.098 12.2642 67.7874 12.2642C68.4768 12.2642 69.08 12.4283 69.597 12.7564C70.1174 13.0845 70.5218 13.5452 70.8101 14.1385C71.1018 14.7318 71.2476 15.4261 71.2476 16.2216C71.2476 17.0104 71.1018 17.6998 70.8101 18.2898C70.5218 18.8797 70.1174 19.3388 69.597 19.6669C69.08 19.995 68.4768 20.1591 67.7874 20.1591ZM67.7874 19.1051C68.3111 19.1051 68.7419 18.9709 69.08 18.7024C69.4181 18.4339 69.6683 18.081 69.8307 17.6435C69.9931 17.206 70.0743 16.732 70.0743 16.2216C70.0743 15.7112 69.9931 15.2356 69.8307 14.7947C69.6683 14.3539 69.4181 13.9976 69.08 13.7259C68.7419 13.4541 68.3111 13.3182 67.7874 13.3182C67.2637 13.3182 66.8328 13.4541 66.4948 13.7259C66.1567 13.9976 65.9065 14.3539 65.7441 14.7947C65.5817 15.2356 65.5005 15.7112 65.5005 16.2216C65.5005 16.732 65.5817 17.206 65.7441 17.6435C65.9065 18.081 66.1567 18.4339 66.4948 18.7024C66.8328 18.9709 67.2637 19.1051 67.7874 19.1051ZM77.7111 16.8778V12.3636H78.8844V20H77.7111V18.7074H77.6316C77.4526 19.0952 77.1742 19.425 76.7964 19.6967C76.4185 19.9652 75.9412 20.0994 75.3645 20.0994C74.8873 20.0994 74.463 19.995 74.0918 19.7862C73.7206 19.5741 73.4289 19.2559 73.2168 18.8317C73.0047 18.4041 72.8986 17.8655 72.8986 17.2159V12.3636H74.0719V17.1364C74.0719 17.6932 74.2277 18.1373 74.5393 18.4688C74.8541 18.8002 75.2552 18.9659 75.7424 18.9659C76.034 18.9659 76.3307 18.8913 76.6323 18.7422C76.9372 18.593 77.1924 18.3643 77.3979 18.0561C77.6067 17.7479 77.7111 17.3551 77.7111 16.8778ZM87.1377 12.3636L84.3138 20H83.1207L80.2968 12.3636H81.5695L83.6775 18.4489H83.757L85.865 12.3636H87.1377ZM88.5464 20V12.3636H89.6799V13.517H89.7594C89.8986 13.1392 90.1505 12.8326 90.5151 12.5973C90.8797 12.362 91.2907 12.2443 91.7481 12.2443C91.8342 12.2443 91.942 12.246 92.0712 12.2493C92.2005 12.2526 92.2983 12.2576 92.3645 12.2642V13.4574C92.3248 13.4474 92.2336 13.4325 92.0911 13.4126C91.9519 13.3894 91.8044 13.3778 91.6486 13.3778C91.2774 13.3778 90.946 13.4557 90.6543 13.6115C90.366 13.764 90.1373 13.9761 89.9682 14.2479C89.8025 14.5163 89.7197 14.8229 89.7197 15.1676V20H88.5464ZM96.5846 20.1591C95.8488 20.1591 95.2141 19.9967 94.6805 19.6719C94.1502 19.3438 93.7409 18.8864 93.4525 18.2997C93.1675 17.7098 93.025 17.0237 93.025 16.2415C93.025 15.4593 93.1675 14.7699 93.4525 14.1733C93.7409 13.5734 94.1419 13.1061 94.6557 12.7713C95.1727 12.4332 95.7759 12.2642 96.4653 12.2642C96.863 12.2642 97.2558 12.3305 97.6436 12.4631C98.0314 12.5956 98.3843 12.8111 98.7025 13.1094C99.0207 13.4044 99.2743 13.7955 99.4632 14.2827C99.6521 14.7699 99.7466 15.3698 99.7466 16.0824V16.5795H93.8602V15.5653H98.5534C98.5534 15.1345 98.4672 14.75 98.2949 14.4119C98.1258 14.0739 97.8839 13.8071 97.569 13.6115C97.2575 13.416 96.8896 13.3182 96.4653 13.3182C95.998 13.3182 95.5936 13.4342 95.2522 13.6662C94.9142 13.8949 94.654 14.1932 94.4717 14.5611C94.2894 14.929 94.1983 15.3234 94.1983 15.7443V16.4205C94.1983 16.9972 94.2977 17.486 94.4966 17.8871C94.6987 18.2848 94.9788 18.5881 95.3368 18.7969C95.6947 19.0024 96.1107 19.1051 96.5846 19.1051C96.8929 19.1051 97.1713 19.062 97.4199 18.9759C97.6718 18.8864 97.8888 18.7538 98.0711 18.5781C98.2534 18.3991 98.3943 18.1771 98.4937 17.9119L99.6272 18.2301C99.5079 18.6146 99.3074 18.9527 99.0257 19.2443C98.744 19.5327 98.3959 19.758 97.9816 19.9205C97.5673 20.0795 97.1017 20.1591 96.5846 20.1591ZM101.173 20V19.1051L105.508 13.5369V13.4574H101.312V12.3636H107.019V13.2983L102.803 18.8267V18.9062H107.158V20H101.173ZM113.796 9.81818V20H112.623V9.81818H113.796ZM119.007 20.1591C118.271 20.1591 117.637 19.9967 117.103 19.6719C116.573 19.3438 116.163 18.8864 115.875 18.2997C115.59 17.7098 115.447 17.0237 115.447 16.2415C115.447 15.4593 115.59 14.7699 115.875 14.1733C116.163 13.5734 116.564 13.1061 117.078 12.7713C117.595 12.4332 118.198 12.2642 118.888 12.2642C119.285 12.2642 119.678 12.3305 120.066 12.4631C120.454 12.5956 120.807 12.8111 121.125 13.1094C121.443 13.4044 121.697 13.7955 121.886 14.2827C122.075 14.7699 122.169 15.3698 122.169 16.0824V16.5795H116.283V15.5653H120.976C120.976 15.1345 120.89 14.75 120.717 14.4119C120.548 14.0739 120.306 13.8071 119.991 13.6115C119.68 13.416 119.312 13.3182 118.888 13.3182C118.42 13.3182 118.016 13.4342 117.675 13.6662C117.337 13.8949 117.076 14.1932 116.894 14.5611C116.712 14.929 116.621 15.3234 116.621 15.7443V16.4205C116.621 16.9972 116.72 17.486 116.919 17.8871C117.121 18.2848 117.401 18.5881 117.759 18.7969C118.117 19.0024 118.533 19.1051 119.007 19.1051C119.315 19.1051 119.594 19.062 119.842 18.9759C120.094 18.8864 120.311 18.7538 120.494 18.5781C120.676 18.3991 120.817 18.1771 120.916 17.9119L122.05 18.2301C121.93 18.6146 121.73 18.9527 121.448 19.2443C121.166 19.5327 120.818 19.758 120.404 19.9205C119.99 20.0795 119.524 20.1591 119.007 20.1591ZM129.223 14.0739L128.169 14.3722C128.103 14.1965 128.005 14.0258 127.876 13.8601C127.75 13.6911 127.577 13.5518 127.359 13.4425C127.14 13.3331 126.86 13.2784 126.518 13.2784C126.051 13.2784 125.662 13.3861 125.35 13.6016C125.042 13.8137 124.888 14.0838 124.888 14.4119C124.888 14.7036 124.994 14.9339 125.206 15.103C125.418 15.272 125.749 15.4129 126.2 15.5256L127.334 15.804C128.016 15.9697 128.525 16.2232 128.86 16.5646C129.195 16.9027 129.362 17.3385 129.362 17.8722C129.362 18.3097 129.236 18.7008 128.984 19.0455C128.736 19.3902 128.388 19.6619 127.94 19.8608C127.493 20.0597 126.972 20.1591 126.379 20.1591C125.6 20.1591 124.956 19.9901 124.445 19.652C123.935 19.3139 123.612 18.8201 123.476 18.1705L124.589 17.892C124.695 18.303 124.896 18.6113 125.191 18.8168C125.489 19.0223 125.879 19.125 126.359 19.125C126.906 19.125 127.34 19.009 127.662 18.777C127.987 18.5417 128.149 18.2599 128.149 17.9318C128.149 17.6667 128.056 17.4446 127.871 17.2656C127.685 17.0833 127.4 16.9474 127.015 16.858L125.743 16.5597C125.043 16.3939 124.53 16.1371 124.202 15.7891C123.877 15.4377 123.714 14.9986 123.714 14.4716C123.714 14.0407 123.835 13.6596 124.077 13.3281C124.323 12.9967 124.656 12.7365 125.077 12.5476C125.501 12.3587 125.981 12.2642 126.518 12.2642C127.274 12.2642 127.867 12.4299 128.298 12.7614C128.732 13.0928 129.041 13.5303 129.223 14.0739ZM135.959 15.4062V20H134.786V12.3636H135.919V13.5568H136.019C136.198 13.169 136.469 12.8575 136.834 12.6222C137.199 12.3835 137.669 12.2642 138.246 12.2642C138.763 12.2642 139.215 12.3703 139.603 12.5824C139.991 12.7912 140.293 13.1094 140.508 13.5369C140.723 13.9612 140.831 14.4981 140.831 15.1477V20H139.658V15.2273C139.658 14.6274 139.502 14.16 139.191 13.8253C138.879 13.4872 138.451 13.3182 137.908 13.3182C137.533 13.3182 137.199 13.3994 136.904 13.5618C136.612 13.7242 136.382 13.9612 136.213 14.2727C136.044 14.5843 135.959 14.9621 135.959 15.4062ZM145.937 20.1591C145.248 20.1591 144.643 19.995 144.123 19.6669C143.606 19.3388 143.201 18.8797 142.91 18.2898C142.621 17.6998 142.477 17.0104 142.477 16.2216C142.477 15.4261 142.621 14.7318 142.91 14.1385C143.201 13.5452 143.606 13.0845 144.123 12.7564C144.643 12.4283 145.248 12.2642 145.937 12.2642C146.627 12.2642 147.23 12.4283 147.747 12.7564C148.267 13.0845 148.672 13.5452 148.96 14.1385C149.252 14.7318 149.398 15.4261 149.398 16.2216C149.398 17.0104 149.252 17.6998 148.96 18.2898C148.672 18.8797 148.267 19.3388 147.747 19.6669C147.23 19.995 146.627 20.1591 145.937 20.1591ZM145.937 19.1051C146.461 19.1051 146.892 18.9709 147.23 18.7024C147.568 18.4339 147.818 18.081 147.981 17.6435C148.143 17.206 148.224 16.732 148.224 16.2216C148.224 15.7112 148.143 15.2356 147.981 14.7947C147.818 14.3539 147.568 13.9976 147.23 13.7259C146.892 13.4541 146.461 13.3182 145.937 13.3182C145.414 13.3182 144.983 13.4541 144.645 13.7259C144.307 13.9976 144.057 14.3539 143.894 14.7947C143.732 15.2356 143.651 15.7112 143.651 16.2216C143.651 16.732 143.732 17.206 143.894 17.6435C144.057 18.081 144.307 18.4339 144.645 18.7024C144.983 18.9709 145.414 19.1051 145.937 19.1051ZM155.861 16.8778V12.3636H157.035V20H155.861V18.7074H155.782C155.603 19.0952 155.324 19.425 154.946 19.6967C154.569 19.9652 154.091 20.0994 153.515 20.0994C153.037 20.0994 152.613 19.995 152.242 19.7862C151.871 19.5741 151.579 19.2559 151.367 18.8317C151.155 18.4041 151.049 17.8655 151.049 17.2159V12.3636H152.222V17.1364C152.222 17.6932 152.378 18.1373 152.689 18.4688C153.004 18.8002 153.405 18.9659 153.892 18.9659C154.184 18.9659 154.481 18.8913 154.782 18.7422C155.087 18.593 155.343 18.3643 155.548 18.0561C155.757 17.7479 155.861 17.3551 155.861 16.8778ZM165.288 12.3636L162.464 20H161.271L158.447 12.3636H159.72L161.828 18.4489H161.907L164.015 12.3636H165.288ZM169.625 20.1591C168.889 20.1591 168.254 19.9967 167.721 19.6719C167.19 19.3438 166.781 18.8864 166.493 18.2997C166.208 17.7098 166.065 17.0237 166.065 16.2415C166.065 15.4593 166.208 14.7699 166.493 14.1733C166.781 13.5734 167.182 13.1061 167.696 12.7713C168.213 12.4332 168.816 12.2642 169.505 12.2642C169.903 12.2642 170.296 12.3305 170.684 12.4631C171.071 12.5956 171.424 12.8111 171.743 13.1094C172.061 13.4044 172.314 13.7955 172.503 14.2827C172.692 14.7699 172.787 15.3698 172.787 16.0824V16.5795H166.9V15.5653H171.593C171.593 15.1345 171.507 14.75 171.335 14.4119C171.166 14.0739 170.924 13.8071 170.609 13.6115C170.298 13.416 169.93 13.3182 169.505 13.3182C169.038 13.3182 168.634 13.4342 168.292 13.6662C167.954 13.8949 167.694 14.1932 167.512 14.5611C167.329 14.929 167.238 15.3234 167.238 15.7443V16.4205C167.238 16.9972 167.338 17.486 167.537 17.8871C167.739 18.2848 168.019 18.5881 168.377 18.7969C168.735 19.0024 169.151 19.1051 169.625 19.1051C169.933 19.1051 170.211 19.062 170.46 18.9759C170.712 18.8864 170.929 18.7538 171.111 18.5781C171.294 18.3991 171.434 18.1771 171.534 17.9119L172.667 18.2301C172.548 18.6146 172.347 18.9527 172.066 19.2443C171.784 19.5327 171.436 19.758 171.022 19.9205C170.607 20.0795 170.142 20.1591 169.625 20.1591ZM176.679 20.179C176.195 20.179 175.756 20.0878 175.361 19.9055C174.967 19.7199 174.654 19.4531 174.421 19.1051C174.189 18.7538 174.073 18.3295 174.073 17.8324C174.073 17.3949 174.16 17.0402 174.332 16.7685C174.504 16.4934 174.735 16.2779 175.023 16.1222C175.311 15.9664 175.63 15.8504 175.978 15.7741C176.329 15.6946 176.682 15.6316 177.037 15.5852C177.501 15.5256 177.877 15.4808 178.165 15.451C178.457 15.4179 178.669 15.3632 178.801 15.2869C178.937 15.2107 179.005 15.0781 179.005 14.8892V14.8494C179.005 14.3589 178.871 13.9777 178.603 13.706C178.337 13.4342 177.935 13.2983 177.395 13.2983C176.834 13.2983 176.395 13.4209 176.077 13.6662C175.759 13.9115 175.535 14.1733 175.406 14.4517L174.292 14.054C174.491 13.59 174.756 13.2287 175.088 12.9702C175.422 12.7083 175.787 12.526 176.181 12.4233C176.579 12.3172 176.97 12.2642 177.355 12.2642C177.6 12.2642 177.882 12.294 178.2 12.3537C178.521 12.41 178.831 12.5277 179.13 12.7067C179.431 12.8857 179.681 13.1558 179.88 13.517C180.079 13.8783 180.179 14.3622 180.179 14.9688V20H179.005V18.9659H178.946C178.866 19.1316 178.734 19.3089 178.548 19.4979C178.362 19.6868 178.115 19.8475 177.807 19.9801C177.499 20.1127 177.123 20.179 176.679 20.179ZM176.858 19.125C177.322 19.125 177.713 19.0339 178.031 18.8516C178.352 18.6693 178.594 18.4339 178.757 18.1456C178.922 17.8572 179.005 17.554 179.005 17.2358V16.1619C178.956 16.2216 178.846 16.2763 178.677 16.326C178.511 16.3724 178.319 16.4138 178.1 16.4503C177.885 16.4834 177.675 16.5133 177.469 16.5398C177.267 16.563 177.103 16.5829 176.977 16.5994C176.672 16.6392 176.387 16.7038 176.122 16.7933C175.86 16.8795 175.648 17.0104 175.485 17.1861C175.326 17.3584 175.247 17.5937 175.247 17.892C175.247 18.2997 175.398 18.608 175.699 18.8168C176.004 19.0223 176.39 19.125 176.858 19.125ZM186.993 16.8778V12.3636H188.166V20H186.993V18.7074H186.913C186.734 19.0952 186.456 19.425 186.078 19.6967C185.7 19.9652 185.223 20.0994 184.646 20.0994C184.169 20.0994 183.745 19.995 183.373 19.7862C183.002 19.5741 182.71 19.2559 182.498 18.8317C182.286 18.4041 182.18 17.8655 182.18 17.2159V12.3636H183.353V17.1364C183.353 17.6932 183.509 18.1373 183.821 18.4688C184.136 18.8002 184.537 18.9659 185.024 18.9659C185.316 18.9659 185.612 18.8913 185.914 18.7422C186.219 18.593 186.474 18.3643 186.679 18.0561C186.888 17.7479 186.993 17.3551 186.993 16.8778ZM193.496 12.3636V13.358H189.539V12.3636H193.496ZM190.692 10.5341H191.865V17.8125C191.865 18.1439 191.913 18.3925 192.009 18.5582C192.109 18.7206 192.235 18.83 192.387 18.8864C192.543 18.9394 192.707 18.9659 192.879 18.9659C193.009 18.9659 193.115 18.9593 193.198 18.946C193.28 18.9295 193.347 18.9162 193.396 18.9062L193.635 19.9602C193.556 19.9901 193.445 20.0199 193.302 20.0497C193.159 20.0829 192.979 20.0994 192.76 20.0994C192.429 20.0994 192.104 20.0282 191.786 19.8857C191.471 19.7431 191.209 19.526 191 19.2344C190.795 18.9427 190.692 18.5748 190.692 18.1307V10.5341ZM198.24 20.1591C197.505 20.1591 196.87 19.9967 196.336 19.6719C195.806 19.3438 195.397 18.8864 195.108 18.2997C194.823 17.7098 194.681 17.0237 194.681 16.2415C194.681 15.4593 194.823 14.7699 195.108 14.1733C195.397 13.5734 195.798 13.1061 196.312 12.7713C196.829 12.4332 197.432 12.2642 198.121 12.2642C198.519 12.2642 198.912 12.3305 199.299 12.4631C199.687 12.5956 200.04 12.8111 200.358 13.1094C200.677 13.4044 200.93 13.7955 201.119 14.2827C201.308 14.7699 201.402 15.3698 201.402 16.0824V16.5795H195.516V15.5653H200.209C200.209 15.1345 200.123 14.75 199.951 14.4119C199.782 14.0739 199.54 13.8071 199.225 13.6115C198.913 13.416 198.545 13.3182 198.121 13.3182C197.654 13.3182 197.249 13.4342 196.908 13.6662C196.57 13.8949 196.31 14.1932 196.128 14.5611C195.945 14.929 195.854 15.3234 195.854 15.7443V16.4205C195.854 16.9972 195.954 17.486 196.152 17.8871C196.355 18.2848 196.635 18.5881 196.993 18.7969C197.351 19.0024 197.767 19.1051 198.24 19.1051C198.549 19.1051 198.827 19.062 199.076 18.9759C199.328 18.8864 199.545 18.7538 199.727 18.5781C199.909 18.3991 200.05 18.1771 200.15 17.9119L201.283 18.2301C201.164 18.6146 200.963 18.9527 200.682 19.2443C200.4 19.5327 200.052 19.758 199.638 19.9205C199.223 20.0795 198.758 20.1591 198.24 20.1591ZM197.525 11.3295L198.738 9.02273H200.11L198.559 11.3295H197.525ZM208.456 14.0739L207.402 14.3722C207.336 14.1965 207.238 14.0258 207.109 13.8601C206.983 13.6911 206.811 13.5518 206.592 13.4425C206.373 13.3331 206.093 13.2784 205.752 13.2784C205.284 13.2784 204.895 13.3861 204.583 13.6016C204.275 13.8137 204.121 14.0838 204.121 14.4119C204.121 14.7036 204.227 14.9339 204.439 15.103C204.651 15.272 204.983 15.4129 205.434 15.5256L206.567 15.804C207.25 15.9697 207.759 16.2232 208.093 16.5646C208.428 16.9027 208.596 17.3385 208.596 17.8722C208.596 18.3097 208.47 18.7008 208.218 19.0455C207.969 19.3902 207.621 19.6619 207.174 19.8608C206.726 20.0597 206.206 20.1591 205.613 20.1591C204.834 20.1591 204.189 19.9901 203.679 19.652C203.168 19.3139 202.845 18.8201 202.709 18.1705L203.823 17.892C203.929 18.303 204.129 18.6113 204.424 18.8168C204.723 19.0223 205.112 19.125 205.593 19.125C206.14 19.125 206.574 19.009 206.895 18.777C207.22 18.5417 207.382 18.2599 207.382 17.9318C207.382 17.6667 207.29 17.4446 207.104 17.2656C206.918 17.0833 206.633 16.9474 206.249 16.858L204.976 16.5597C204.277 16.3939 203.763 16.1371 203.435 15.7891C203.11 15.4377 202.948 14.9986 202.948 14.4716C202.948 14.0407 203.069 13.6596 203.311 13.3281C203.556 12.9967 203.889 12.7365 204.31 12.5476C204.734 12.3587 205.215 12.2642 205.752 12.2642C206.507 12.2642 207.101 12.4299 207.532 12.7614C207.966 13.0928 208.274 13.5303 208.456 14.0739ZM211.773 9.81818L211.673 17.1364H210.52L210.421 9.81818H211.773ZM211.097 20.0795C210.851 20.0795 210.641 19.9917 210.465 19.8161C210.29 19.6404 210.202 19.4299 210.202 19.1847C210.202 18.9394 210.29 18.7289 210.465 18.5533C210.641 18.3776 210.851 18.2898 211.097 18.2898C211.342 18.2898 211.552 18.3776 211.728 18.5533C211.904 18.7289 211.992 18.9394 211.992 19.1847C211.992 19.3471 211.95 19.4962 211.867 19.6321C211.788 19.768 211.68 19.8774 211.544 19.9602C211.412 20.0398 211.262 20.0795 211.097 20.0795Z" fill="white" fill-opacity="0.4"/>
<path fill-rule="evenodd" clip-rule="evenodd" d="M227.286 9.76366C227.563 9.48633 228.012 9.48633 228.289 9.76366L233.015 14.498C233.291 14.7753 233.291 15.2249 233.015 15.5023L228.289 20.2366C228.012 20.5139 227.563 20.5139 227.286 20.2366C227.01 19.9592 227.01 19.5096 227.286 19.2323L230.802 15.7103H221.487C221.095 15.7103 220.778 15.3923 220.778 15.0001C220.778 14.6079 221.095 14.29 221.487 14.29H230.802L227.286 10.768C227.01 10.4906 227.01 10.041 227.286 9.76366Z" fill="url(#paint2_linear_419_4119)" style="mix-blend-mode:screen"/>
<mask id="mask0_419_4119" style="mask-type:alpha" maskUnits="userSpaceOnUse" x="-1" y="0" width="248" height="31">
<rect x="-0.169983" y="0.0898438" width="246.34" height="30" fill="white"/>
</mask>
<g mask="url(#mask0_419_4119)">
<rect x="-0.169983" y="0.0898438" width="246.34" height="30" rx="15" fill="url(#paint3_linear_419_4119)"/>
</g>
</g>
</g>
<defs>
<filter id="filter0_i_419_4119" x="-6" y="-7" width="258" height="43" filterUnits="userSpaceOnUse" color-interpolation-filters="sRGB">
<feFlood flood-opacity="0" result="BackgroundImageFix"/>
<feBlend mode="normal" in="SourceGraphic" in2="BackgroundImageFix" result="shape"/>
<feColorMatrix in="SourceAlpha" type="matrix" values="0 0 0 0 0 0 0 0 0 0 0 0 0 0 0 0 0 0 127 0" result="hardAlpha"/>
<feOffset dy="-7"/>
<feGaussianBlur stdDeviation="5.5"/>
<feComposite in2="hardAlpha" operator="arithmetic" k2="-1" k3="1"/>
<feColorMatrix type="matrix" values="0 0 0 0 0.643137 0 0 0 0 0.560784 0 0 0 0 1 0 0 0 0.12 0"/>
<feBlend mode="normal" in2="shape" result="effect1_innerShadow_419_4119"/>
</filter>
<linearGradient id="paint0_linear_419_4119" x1="13.6678" y1="23.3327" x2="50.2802" y2="23.3377" gradientUnits="userSpaceOnUse">
<stop stop-color="#E59CFF"/>
<stop offset="0.5" stop-color="#BA9CFF"/>
<stop offset="1" stop-color="#9CB2FF"/>
</linearGradient>
<linearGradient id="paint1_linear_419_4119" x1="37.9989" y1="14.9787" x2="214.001" y2="15.0009" gradientUnits="userSpaceOnUse">
<stop offset="0.0001" stop-color="#E59CFF"/>
<stop offset="0.5001" stop-color="#BA9CFF"/>
<stop offset="1" stop-color="#9CB2FF"/>
</linearGradient>
<linearGradient id="paint2_linear_419_4119" x1="220.778" y1="20.4446" x2="249.556" y2="20.449" gradientUnits="userSpaceOnUse">
<stop stop-color="#E59CFF"/>
<stop offset="0.5" stop-color="#BA9CFF"/>
<stop offset="1" stop-color="#9CB2FF"/>
</linearGradient>
<linearGradient id="paint3_linear_419_4119" x1="-0.172424" y1="15.0668" x2="246.172" y2="15.107" gradientUnits="userSpaceOnUse">
<stop offset="0.0001" stop-color="#E59CFF" stop-opacity="0.24"/>
<stop offset="0.5001" stop-color="#BA9CFF" stop-opacity="0.24"/>
<stop offset="1" stop-color="#9CB2FF" stop-opacity="0.24"/>
</linearGradient>
<clipPath id="clip0_419_4119">
<rect width="246" height="30" rx="15" fill="white"/>
</clipPath>
</defs>
</svg>
